<svg width="260" height="72" xmlns="http://www.w3.org/2000/svg"><defs><linearGradient x1="90.195%" y1="103.379%" x2="38.807%" y2="30.115%" id="a"><stop stop-color="#5C33F3" offset="0%"/><stop stop-color="#2CADFF" offset="100%"/></linearGradient></defs><g fill="none" fill-rule="evenodd"><path d="M50.99.167L9.803 0h-.055c-2.59 0-5.012 1-6.885 2.891C.991 4.726 0 7.228 0 9.841v52.318c0 2.613.991 5.115 2.863 6.95A9.709 9.709 0 009.747 72h.055l41.189-.111v-2.502c0-12.843-4.901-24.575-12.94-33.304 8.37-9.118 12.94-20.849 12.94-33.359V.167zm-30.23 23.74c-4.901-2.001-10.187-3.28-15.75-3.558v-.111c7.71-1.168 13.822-7.395 14.869-15.179l10.352.056c-.606 7.283-3.965 13.955-9.471 18.792zM6.388 6.45a4.726 4.726 0 013.359-1.39h5.01c-.936 5.06-4.845 9.063-9.801 10.12V9.84c.055-1.279.55-2.502 1.432-3.392zM5.01 51.762V41.31c13.38 1.223 24.064 12.065 25.22 25.575l-10.352.056C18.777 59.1 12.72 52.93 5.01 51.762zM9.8 66.941c-1.266 0-2.477-.5-3.358-1.39a4.819 4.819 0 01-1.377-3.392v-5.282a12.66 12.66 0 019.802 10.064H9.802zm36.123-.112l-10.737.056C33.975 50.595 21.09 37.529 4.956 36.25V25.408c22.081 1.28 39.757 19.182 40.968 41.421zM34.471 32.525a50.248 50.248 0 00-8.866-6.283c5.617-5.615 9.031-13.065 9.637-21.127l10.738.056c-.606 10.23-4.626 19.793-11.51 27.354z" fill="url(#a)" fill-rule="nonzero"/><g fill="#102649"><path d="M113.069 26.748c-2.176-1.17-4.63-1.728-7.363-1.728-2.79 0-5.3.613-7.475 1.84-2.176 1.226-3.85 2.898-5.02 5.017-1.172 2.118-1.73 4.515-1.73 7.19 0 1.952.335 3.847 1.06 5.52a13.266 13.266 0 002.845 4.459 12.607 12.607 0 004.518 2.899 16.575 16.575 0 005.857 1.059c2.734 0 5.188-.558 7.364-1.728 2.175-1.17 3.849-2.843 5.076-4.962 1.227-2.118 1.84-4.57 1.84-7.246 0-2.732-.613-5.184-1.84-7.303-1.34-2.174-3.013-3.846-5.132-5.017zm-1.785 18.229c-1.506 1.56-3.403 2.34-5.634 2.34-2.287 0-4.184-.78-5.69-2.396-1.506-1.617-2.231-3.568-2.231-5.909 0-2.397.725-4.404 2.175-5.965 1.45-1.616 3.403-2.397 5.746-2.397 2.287 0 4.128.78 5.634 2.342 1.506 1.56 2.231 3.567 2.231 6.02.056 2.397-.67 4.404-2.231 5.965z" fill-rule="nonzero"/><path d="M139.175 25.02h-.781c-1.674 0-3.18.39-4.686 1.17-1.506.781-2.733 1.896-3.793 3.345h-.056v-4.069h-6.247v27.148h6.247V39.737c0-1.505.28-2.788.837-3.958.558-1.17 1.45-2.118 2.566-2.787 1.116-.67 2.454-1.06 4.016-1.06.558 0 1.172 0 1.897.056V25.02z"/><path d="M160.762 28.644h-.111c-2.064-2.453-4.853-3.68-8.423-3.68-1.841 0-3.57.335-5.188 1.06-1.618.724-3.012 1.672-4.184 2.898-1.171 1.227-2.064 2.732-2.733 4.46-.67 1.784-1.004 3.623-1.004 5.63 0 1.672.223 3.177.614 4.683.446 1.449 1.06 2.731 1.84 3.846.781 1.115 1.73 2.062 2.79 2.899 1.06.836 2.287 1.449 3.625 1.84 1.34.39 2.79.612 4.24.612 3.681 0 6.582-1.338 8.646-4.069h.056v3.623h5.968V25.3h-6.247v3.345h.111zm-2.008 16.388c-1.506 1.505-3.347 2.286-5.466 2.286-2.287 0-4.184-.78-5.634-2.286-1.45-1.505-2.176-3.512-2.176-5.909 0-1.282.223-2.452.614-3.511.39-1.06.948-1.951 1.673-2.676a7.618 7.618 0 012.51-1.672 7.929 7.929 0 013.068-.614c2.232 0 4.072.837 5.523 2.453 1.45 1.617 2.175 3.623 2.175 6.02 0 2.397-.78 4.404-2.287 5.91zm39.661-13.267a12.69 12.69 0 00-2.008-2.787 13.938 13.938 0 00-2.622-2.174 10.118 10.118 0 00-3.18-1.338c-1.17-.279-2.342-.502-3.57-.502-3.625 0-6.526 1.227-8.645 3.68h-.112v-3.29h-6.248v38.13h6.248V49.157h.056c2.064 2.509 4.909 3.791 8.59 3.791 1.506 0 2.9-.223 4.24-.613 1.338-.446 2.566-1.06 3.625-1.84 1.06-.78 2.009-1.784 2.79-2.898.78-1.115 1.394-2.397 1.84-3.847.447-1.45.614-3.01.614-4.682 0-1.338-.167-2.62-.446-3.902-.28-1.282-.614-2.342-1.172-3.4zm-6.805 13.267c-1.45 1.505-3.347 2.286-5.634 2.286-2.231 0-4.128-.78-5.634-2.286-1.506-1.505-2.287-3.512-2.287-5.909 0-2.452.725-4.46 2.231-6.076 1.45-1.616 3.403-2.397 5.69-2.397 2.231 0 4.072.78 5.578 2.342 1.506 1.56 2.231 3.623 2.231 6.131 0 2.397-.725 4.404-2.175 5.91zm32.186-16.388h-.111c-2.064-2.453-4.853-3.68-8.424-3.68-1.84 0-3.57.335-5.187 1.06-1.618.724-3.012 1.672-4.184 2.898-1.171 1.227-2.064 2.732-2.733 4.46-.67 1.784-1.004 3.623-1.004 5.63 0 1.672.223 3.177.613 4.683.447 1.449 1.06 2.731 1.841 3.846.781 1.115 1.73 2.062 2.79 2.899 1.06.836 2.286 1.449 3.625 1.84 1.339.39 2.79.612 4.24.612 3.681 0 6.582-1.338 8.646-4.069h.055v3.623h5.97V25.3h-6.248v3.345h.111zm-2.008 16.388c-1.506 1.505-3.347 2.286-5.467 2.286-2.287 0-4.183-.78-5.634-2.286-1.45-1.505-2.175-3.512-2.175-5.909 0-1.282.223-2.452.613-3.511.39-1.06.949-1.951 1.674-2.676a7.618 7.618 0 012.51-1.672 7.929 7.929 0 013.068-.614c2.231 0 4.072.837 5.523 2.453 1.45 1.617 2.175 3.623 2.175 6.02 0 2.397-.78 4.404-2.287 5.91z" fill-rule="nonzero"/><path d="M253.249 25.41l-7.029 18.285h-.055L238.69 25.41h-6.582l11.044 25.643-4.908 12.486h6.582l14.95-38.129zm-160.931 0h-7.363L73.854 37.786h-.112v-24.36h-6.191v39.132h6.191v-6.355l4.575-5.073h.111l7.029 11.428h7.028l-9.929-16.166z"/></g></g></svg>